<svg width="420" height="60" viewBox="0 0 420 60" fill="none" xmlns="http://www.w3.org/2000/svg">
<rect x="0.5" y="0.5" width="419" height="59" stroke="#1F1F1F"/>
<path d="M177.627 27.657C177.205 25.0128 175.134 23.4673 172.52 23.4673C169.32 23.4673 166.96 25.864 166.96 29.8182C166.96 33.7724 169.308 36.169 172.52 36.169C175.237 36.169 177.223 34.4666 177.627 32.0217L175.744 32.0156C175.424 33.5973 174.096 34.4666 172.532 34.4666C170.413 34.4666 168.813 32.8427 168.813 29.8182C168.813 26.8178 170.407 25.1697 172.538 25.1697C174.114 25.1697 175.436 26.0572 175.744 27.657H177.627ZM183.62 36.1871C186.234 36.1871 187.943 34.2734 187.943 31.4059C187.943 28.5202 186.234 26.6065 183.62 26.6065C181.006 26.6065 179.298 28.5202 179.298 31.4059C179.298 34.2734 181.006 36.1871 183.62 36.1871ZM183.626 34.6719C181.918 34.6719 181.121 33.1808 181.121 31.3999C181.121 29.625 181.918 28.1158 183.626 28.1158C185.323 28.1158 186.12 29.625 186.12 31.3999C186.12 33.1808 185.323 34.6719 183.626 34.6719ZM191.763 30.4943C191.763 29.0153 192.668 28.1701 193.924 28.1701C195.149 28.1701 195.892 28.973 195.892 30.3192V36H197.697V30.1019C197.697 27.8079 196.435 26.6065 194.54 26.6065C193.145 26.6065 192.233 27.2525 191.805 28.2365H191.69V26.7273H189.958V36H191.763V30.4943ZM204.446 26.7273H202.545V24.5057H200.74V26.7273H199.381V28.1761H200.74V33.6516C200.733 35.3359 202.019 36.1509 203.444 36.1207C204.018 36.1147 204.404 36.006 204.615 35.9276L204.289 34.4364C204.169 34.4606 203.945 34.5149 203.655 34.5149C203.07 34.5149 202.545 34.3217 202.545 33.2773V28.1761H204.446V26.7273ZM209.141 36.2053C210.675 36.2053 211.538 35.4265 211.882 34.7322H211.955V36H213.717V29.8423C213.717 27.1438 211.592 26.6065 210.119 26.6065C208.441 26.6065 206.896 27.2827 206.292 28.973L207.988 29.3594C208.254 28.7013 208.93 28.0675 210.144 28.0675C211.309 28.0675 211.906 28.6772 211.906 29.7276V29.7699C211.906 30.4279 211.23 30.4158 209.564 30.609C207.807 30.8143 206.008 31.2731 206.008 33.38C206.008 35.2031 207.379 36.2053 209.141 36.2053ZM209.534 34.7564C208.514 34.7564 207.777 34.2976 207.777 33.4041C207.777 32.4382 208.634 32.0941 209.679 31.9553C210.264 31.8768 211.653 31.7198 211.912 31.4602V32.6555C211.912 33.7543 211.037 34.7564 209.534 34.7564ZM220.028 36.1871C222.219 36.1871 223.638 34.8711 223.837 33.0661H222.08C221.851 34.0682 221.072 34.6598 220.04 34.6598C218.512 34.6598 217.528 33.386 217.528 31.3636C217.528 29.3775 218.53 28.1278 220.04 28.1278C221.187 28.1278 221.887 28.8523 222.08 29.7216H223.837C223.644 27.8501 222.116 26.6065 220.009 26.6065C217.395 26.6065 215.705 28.5746 215.705 31.4059C215.705 34.201 217.335 36.1871 220.028 36.1871ZM230.096 26.7273H228.194V24.5057H226.389V26.7273H225.031V28.1761H226.389V33.6516C226.383 35.3359 227.669 36.1509 229.093 36.1207C229.667 36.1147 230.053 36.006 230.265 35.9276L229.939 34.4364C229.818 34.4606 229.595 34.5149 229.305 34.5149C228.719 34.5149 228.194 34.3217 228.194 33.2773V28.1761H230.096V26.7273ZM242.465 32.1545C242.471 33.7301 241.3 34.4787 240.286 34.4787C239.169 34.4787 238.396 33.6697 238.396 32.408V26.7273H236.591V32.6254C236.591 34.9254 237.853 36.1207 239.634 36.1207C241.028 36.1207 241.976 35.3842 242.405 34.3942H242.502V36H244.276V26.7273H242.465V32.1545ZM253.65 28.9911C253.276 27.5483 252.147 26.6065 250.143 26.6065C248.048 26.6065 246.563 27.7113 246.563 29.3533C246.563 30.6694 247.36 31.5447 249.098 31.9311L250.668 32.2752C251.561 32.4744 251.978 32.8729 251.978 33.4524C251.978 34.1708 251.211 34.7322 250.028 34.7322C248.947 34.7322 248.253 34.2674 248.036 33.3558L246.291 33.6214C246.593 35.2635 247.957 36.1871 250.04 36.1871C252.28 36.1871 253.831 34.9979 253.831 33.3196C253.831 32.0096 252.998 31.2006 251.296 30.8082L249.823 30.4702C248.803 30.2287 248.362 29.8846 248.368 29.2567C248.362 28.5444 249.135 28.0373 250.161 28.0373C251.284 28.0373 251.803 28.6591 252.014 29.2809L253.65 28.9911Z" fill="#1F1F1F"/>
</svg>
